# xmcd CD database file
#
# Track frame offsets:
#	150
#	12589
#	23042
#	40035
#	50637
#	62500
#	75332
#	84630
#	97547
#	109592
#	122509
#	134046
#	149775
#
# Disc length: 2131 seconds
#
# Revision: 0
# Processed by: cddbd v1.5.1PL0 Copyright (c) Steve Scherf et al.
# Submitted via: CDex 1.51
#
DISCID=a408510d
DTITLE=Various Artist - Total Country CD 3
DYEAR=1900
DGENRE=Country
TTITLE0=GLEN CAMPBELL - BY THE TIME I GET TO PHOENIX
TTITLE1=DOLLY PARTON - RELEASE ME
TTITLE2=LYNN ANDERSON - BLUE BAYOU
TTITLE3=WAYLON JENNINGS - MONEY
TTITLE4=ROY DRUSKY - THREE HEARTS IN A TANGLE
TTITLE5=JOHNNY PAYCHECK - GEORGIA IN A JUG
TTITLE6=GEORGE JONES - WORLDS WORST LOSER
TTITLE7=FARON YOUNG - I FALL TO PIECES
TTITLE8=CONWAY TWITTY - YOU MADE ME WHAT I AM
TTITLE9=FREDDIE FENDER - SILVER WINGS
TTITLE10=PATSY CLINE - JUST OUT OF REACH
TTITLE11=JOHN BROSNAN - BOOGEY YODEL COWBOY BLUES
TTITLE12=DON WILLIAM - TAKE MY HAND FOR A WHILE
EXTD=
EXTT0=
EXTT1=
EXTT2=
EXTT3=
EXTT4=
EXTT5=
EXTT6=
EXTT7=
EXTT8=
EXTT9=
EXTT10=
EXTT11=
EXTT12=
PLAYORDER=
